<svg xmlns="http://www.w3.org/2000/svg" width="64" height="32" viewBox="0 0 64 32" fill="none">
    <g id="Option D">
        <path id="Subtract" fill-rule="evenodd" clip-rule="evenodd"
              d="M28.7051 9.51643C26.9384 3.92174 21.7485 0.118164 15.8815 0.118164C7.11038 0.118164 0 7.22854 0 15.9996C0 24.7707 7.11038 31.8811 15.8815 31.8811H35.7676L28.7051 9.51643ZM20.8208 21.5816C20.6621 22.0545 20.2191 22.3733 19.7202 22.3733C18.9198 22.3733 18.3595 21.5821 18.6253 20.827L22.1107 10.927C22.3954 10.1182 23.1596 9.57707 24.0171 9.57707C24.8742 9.57707 25.6382 10.1178 25.9232 10.9262L29.4135 20.8267C29.6797 21.5818 29.1195 22.3733 28.3189 22.3733C27.8203 22.3733 27.3775 22.0549 27.2187 21.5823L26.4243 19.218H21.6135L20.8208 21.5816ZM24.0667 12.2013L25.7987 17.356H22.2379L23.9667 12.2013H24.0667ZM7.34814 21.3733C7.34814 21.9256 7.79585 22.3733 8.34814 22.3733H12.5279C13.5067 22.3733 14.319 22.2212 14.9646 21.9172C15.6103 21.6131 16.0935 21.1986 16.4142 20.6738C16.7349 20.1448 16.8953 19.5491 16.8953 18.8868C16.8953 18.237 16.762 17.683 16.4954 17.2248C16.2288 16.7666 15.8852 16.4125 15.4645 16.1626C15.0479 15.9085 14.6126 15.769 14.1586 15.744V15.619C14.5752 15.5191 14.9521 15.3545 15.2895 15.1254C15.6269 14.8963 15.8956 14.5985 16.0955 14.2319C16.2955 13.8612 16.3955 13.4155 16.3955 12.8948C16.3955 12.2617 16.2413 11.6952 15.9331 11.1953C15.629 10.6955 15.1687 10.3019 14.5523 10.0144C13.9399 9.72286 13.1714 9.57707 12.2467 9.57707H8.34814C7.79586 9.57707 7.34814 10.0248 7.34814 10.5771V21.3733ZM12.1592 20.4363H9.6662V16.6875H12.2217C12.7007 16.6875 13.1131 16.777 13.4588 16.9561C13.8046 17.1311 14.0711 17.3727 14.2586 17.6809C14.446 17.985 14.5398 18.3266 14.5398 18.7056C14.5398 19.2138 14.3523 19.6303 13.9774 19.9552C13.6067 20.276 13.0006 20.4363 12.1592 20.4363ZM11.9593 15.0192H9.6662V11.489H12.0093C12.6924 11.489 13.2068 11.6494 13.5525 11.9701C13.9024 12.2908 14.0774 12.6991 14.0774 13.1947C14.0774 13.5696 13.9837 13.8945 13.7962 14.1695C13.6129 14.4402 13.3609 14.6506 13.0402 14.8005C12.7195 14.9463 12.3592 15.0192 11.9593 15.0192Z"
              fill="#8CC5FA"/>
        <path id="Subtract_2" fill-rule="evenodd" clip-rule="evenodd"
              d="M37.803 28.568C38.4258 30.5402 40.2554 31.8811 42.3237 31.8811H48.1186C56.8897 31.8811 64.0001 24.7707 64.0001 15.9996C64.0001 7.22854 56.8897 0.118164 48.1186 0.118164H28.8188L37.803 28.568ZM49.2381 22.3733C48.5979 22.3733 48.079 21.8544 48.079 21.2142V10.7361C48.079 10.096 48.5979 9.57707 49.2381 9.57707C49.8782 9.57707 50.3971 10.096 50.3971 10.7361V15.4566H50.5533L55.225 9.95459C55.4283 9.71511 55.7266 9.57707 56.0408 9.57707C56.9565 9.57707 57.4493 10.6523 56.8515 11.346L53.4274 15.3191L57.1524 20.5826C57.6844 21.3343 57.1469 22.3733 56.226 22.3733C55.8545 22.3733 55.5065 22.1915 55.2943 21.8866L51.8154 16.8874L50.3971 18.5619V21.2142C50.3971 21.8544 49.8782 22.3733 49.2381 22.3733ZM43.9421 13.0947C43.3472 13.0947 42.89 12.5963 42.5089 12.1394C42.4103 12.0213 42.2936 11.9148 42.1586 11.8201C41.7296 11.516 41.1714 11.364 40.4841 11.364C40.0009 11.364 39.5865 11.4369 39.2407 11.5827C38.895 11.7285 38.6305 11.9263 38.4472 12.1763C38.2639 12.4262 38.1702 12.7115 38.1661 13.0323C38.1661 13.2988 38.2265 13.53 38.3473 13.7258C38.4722 13.9216 38.6409 14.0882 38.8534 14.2257C39.0658 14.3589 39.3011 14.4714 39.5594 14.5631C39.8176 14.6547 40.078 14.7318 40.3404 14.7942L41.5401 15.0941C42.0232 15.2066 42.4877 15.3586 42.9334 15.5503C43.3833 15.7419 43.7852 15.9835 44.1393 16.275C44.4975 16.5666 44.7808 16.9186 44.989 17.331C45.1973 17.7434 45.3014 18.2265 45.3014 18.7805C45.3014 19.5303 45.1098 20.1905 44.7266 20.7612C44.3434 21.3277 43.7894 21.7713 43.0646 22.0921C42.344 22.4086 41.4713 22.5669 40.4466 22.5669C40.3185 22.5669 40.0185 22.5644 39.6958 22.5593C39.0944 22.5498 38.6371 22.0674 38.6371 21.466C38.6371 20.9697 39.1014 20.5512 39.5974 20.5682C39.9484 20.5802 40.289 20.5863 40.4279 20.5863C40.9319 20.5863 41.3734 20.5113 41.7525 20.3613C42.1357 20.2072 42.4356 19.9948 42.6522 19.724C42.8688 19.4491 42.9792 19.1284 42.9834 18.7618C42.9792 18.4286 42.8813 18.1537 42.6897 17.937C42.4981 17.7163 42.2294 17.533 41.8837 17.3872C41.5421 17.2373 41.1423 17.104 40.6841 16.9873L39.2282 16.6124C38.1744 16.3417 37.3413 15.9314 36.729 15.3816C36.1208 14.8276 35.8168 14.0924 35.8168 13.176C35.8168 12.422 36.0209 11.7618 36.4291 11.1953C36.8414 10.6288 37.4017 10.1894 38.1098 9.87694C38.8179 9.56037 39.6198 9.40208 40.5154 9.40208C41.4234 9.40208 42.219 9.56037 42.9022 9.87694C43.5894 10.1894 44.1289 10.6246 44.5204 11.1828C44.6869 11.4184 44.8191 11.669 44.9171 11.9347C45.1422 12.5453 44.5929 13.0947 43.9421 13.0947Z"
              fill="#1A59BF"/>
    </g>
</svg>